# xmcd
#
# Track frame offsets: 
#        150
#        22057
#        37512
#        52380
#        68085
#        81722
#        96555
#        117067
#        130090
#        145877
#        157432
#        174687
#        187142
#        204245
#        220422
#        240420
#        256617
#        272567
#
# Disc length: 3837 seconds
#
# Revision: 0
# Processed by: cddbd v1.5.2PL0 Copyright (c) Steve Scherf et al.
# Submitted via: ExactAudioCopy v0.99pb1
#
DISCID=100efb12
DTITLE=Various Artist - Country Girls Night Out
DYEAR=1999
DGENRE=Country
TTITLE0=Deana Carter - Strawberry Wine
TTITLE1=Deana Carter - Did I Shave My Legs For This?
TTITLE2=Deana Carter - Brand New Key
TTITLE3=Tanya Tucker - Down To My Last Teardrop
TTITLE4=Tanya Tucker - The Jametown Ferry
TTITLE5=Tanya Tucker - Something
TTITLE6=Suzy Boggus - Take It To The Limit
TTITLE7=Suzy Boggus - Outbound Plane
TTITLE8=Suzy Boggus - Somewhere Between
TTITLE9=Crystal Gayle - Never Ending Song Of Love
TTITLE10=Crystal Gayle - Someday Soon
TTITLE11=Crystal Gayle - I Still Miss Someone
TTITLE12=Lacy J. Dalton - The Lovless Cafe
TTITLE13=Lacy J. Dalton - Black Coffee
TTITLE14=Lacy J. Dalton - Stay With Me
TTITLE15=Linda Davis - Just Enough Rope
TTITLE16=Linda Davis - Tonight She's Climbing The Walls
TTITLE17=Linda Davis - L.A. To The Moon
EXTD=Sound recording copyright owned by Nashville Records, a division 
EXTD=of Capitol Records Inc. 1999.\nCompilation copyright owned by EMI
EXTD=Records Ltd. 1999.
EXTT0=
EXTT1=
EXTT2=
EXTT3=
EXTT4=
EXTT5=
EXTT6=
EXTT7=
EXTT8=
EXTT9=
EXTT10=
EXTT11=
EXTT12=
EXTT13=
EXTT14=
EXTT15=
EXTT16=
EXTT17=
PLAYORDER=
